<svg width="30" height="31" viewBox="0 0 30 31" fill="none" xmlns="http://www.w3.org/2000/svg">
<path d="M14.9686 10C14.759 9.99876 14.5513 10.0408 14.3573 10.1237C14.1632 10.2065 13.9868 10.3287 13.838 10.483L7.46832 17.1451C7.31984 17.3004 7.20207 17.4848 7.12171 17.6877C7.04136 17.8906 7 18.108 7 18.3277C7 18.5473 7.04136 18.7647 7.12171 18.9676C7.20207 19.1705 7.31984 19.3549 7.46832 19.5102C7.61679 19.6655 7.79306 19.7887 7.98705 19.8727C8.18104 19.9567 8.38896 20 8.59893 20C8.8089 20 9.01682 19.9567 9.21081 19.8727C9.40481 19.7887 9.58107 19.6655 9.72954 19.5102L14.9686 13.9973L20.2236 19.2937C20.37 19.464 20.5486 19.601 20.748 19.6959C20.9473 19.7908 21.1633 19.8416 21.3824 19.8453C21.6014 19.8489 21.8188 19.8052 22.021 19.717C22.2231 19.6287 22.4057 19.4978 22.5573 19.3323C22.7089 19.1669 22.8262 18.9705 22.9019 18.7555C22.9776 18.5405 23.0101 18.3115 22.9973 18.0828C22.9845 17.854 22.9267 17.6305 22.8276 17.4262C22.7284 17.2219 22.5901 17.0411 22.4211 16.8953L16.0514 10.4664C15.7602 10.1727 15.3731 10.006 14.9686 10Z" fill="#5EBB29"/>
</svg>
