<svg width="73" height="73" viewBox="0 0 73 73" fill="none" xmlns="http://www.w3.org/2000/svg">
<rect x="0.5" y="0.0787354" width="72" height="72" rx="36" fill="#5EBB29" fill-opacity="0.05"/>
<rect x="8.5" y="8.07874" width="56" height="56" rx="28" fill="url(#paint0_linear_51_593)" fill-opacity="0.1"/>
<rect x="9" y="8.57874" width="55" height="55" rx="27.5" stroke="url(#paint1_linear_51_593)" stroke-opacity="0.2"/>
<path d="M41.3636 40.3333C41.3636 39.1231 37.9447 38.1429 33.7273 38.1429M41.3636 40.3333C41.3636 41.5436 37.9447 42.5238 33.7273 42.5238C29.5098 42.5238 26.0909 41.5436 26.0909 40.3333M41.3636 40.3333V45.7405C41.3636 46.988 37.9447 48 33.7273 48C29.5098 48 26.0909 46.9891 26.0909 45.7405V40.3333M41.3636 40.3333C45.5353 40.3333 49 39.2523 49 38.1429V27.1905M33.7273 38.1429C29.5098 38.1429 26.0909 39.1231 26.0909 40.3333M33.7273 38.1429C28.9076 38.1429 25 37.0619 25 35.9524V30.4762M33.7273 28.2857C28.9076 28.2857 25 29.266 25 30.4762M25 30.4762C25 31.6864 28.9076 32.6667 33.7273 32.6667C33.7273 33.7761 37.276 34.8571 41.4476 34.8571C45.6182 34.8571 49 33.7761 49 32.6667M49 27.1905C49 25.9802 45.6182 25 41.4476 25C37.276 25 33.8953 25.9802 33.8953 27.1905M49 27.1905C49 28.4007 45.6182 29.381 41.4476 29.381C37.2771 29.381 33.8953 28.4007 33.8953 27.1905M33.8953 27.1905V38.3247" stroke="#1EA13B" stroke-width="2"/>
<defs>
<linearGradient id="paint0_linear_51_593" x1="36.5" y1="-29.0023" x2="36.5" y2="152.619" gradientUnits="userSpaceOnUse">
<stop stop-color="#5EBB29"/>
<stop offset="0.467671" stop-color="#CAF662"/>
</linearGradient>
<linearGradient id="paint1_linear_51_593" x1="36.5" y1="-89.1645" x2="36.5" y2="114.781" gradientUnits="userSpaceOnUse">
<stop stop-color="#5EBB29"/>
<stop offset="0.716291" stop-color="#CAF662" stop-opacity="0"/>
</linearGradient>
</defs>
</svg>
