<svg width="64" height="64" viewBox="0 0 64 64" fill="none" xmlns="http://www.w3.org/2000/svg">
<path d="M0 32C0 14.3269 14.3269 0 32 0C49.6731 0 64 14.3269 64 32C64 49.6731 49.6731 64 32 64H0V32Z" fill="url(#paint0_linear_19_3248)"/>
<g clip-path="url(#clip0_19_3248)">
<path d="M32 16C23.4667 16 16 22.8622 16 32C16 35.7689 17.3156 39.2355 19.5022 41.9733L16 45.4933L18.5067 48L22.0089 44.4978C24.8462 46.7636 28.369 47.9985 32 48C36.0889 48 40.1955 46.4355 43.3067 43.3067C44.7968 41.8253 45.9787 40.0634 46.7843 38.1228C47.5898 36.1821 48.003 34.1012 48 32V16H32ZM38.8089 32.4622L29.6355 40.6933C29.3511 40.96 28.9067 40.9422 28.64 40.6755C28.5185 40.556 28.4444 40.3966 28.4313 40.2266C28.4183 40.0567 28.4671 39.8878 28.5689 39.7511L32.9067 33.8311L25.7067 33.12C25.5308 33.1035 25.3634 33.0363 25.2249 32.9267C25.0863 32.817 24.9826 32.6695 24.9261 32.5021C24.8697 32.3347 24.863 32.1545 24.9069 31.9833C24.9508 31.8122 25.0433 31.6574 25.1733 31.5378L34.3467 23.3067C34.6311 23.04 35.0755 23.0578 35.3422 23.3244C35.5911 23.5733 35.6267 23.9644 35.4133 24.2489L31.0755 30.1689L38.2755 30.88C39.0755 30.9511 39.3955 31.9289 38.8089 32.4622Z" fill="#FEFEFE"/>
</g>
<defs>
<linearGradient id="paint0_linear_19_3248" x1="0" y1="64" x2="64" y2="0" gradientUnits="userSpaceOnUse">
<stop stop-color="#5EBB29"/>
<stop offset="1" stop-color="#1EA13B"/>
</linearGradient>
<clipPath id="clip0_19_3248">
<rect width="32" height="32" fill="white" transform="translate(16 16)"/>
</clipPath>
</defs>
</svg>
