<svg width="73" height="73" viewBox="0 0 73 73" fill="none" xmlns="http://www.w3.org/2000/svg">
<rect x="0.5" y="0.0787354" width="72" height="72" rx="36" fill="#5EBB29" fill-opacity="0.05"/>
<rect x="8.5" y="8.07874" width="56" height="56" rx="28" fill="url(#paint0_linear_51_619)" fill-opacity="0.1"/>
<rect x="9" y="8.57874" width="55" height="55" rx="27.5" stroke="url(#paint1_linear_51_619)" stroke-opacity="0.2"/>
<path d="M45.6192 36.6243L34.0169 47.7416C33.6572 48.1018 33.095 48.0777 32.7578 47.7176C32.6041 47.5561 32.5104 47.3408 32.4939 47.1113C32.4773 46.8818 32.5391 46.6536 32.6678 46.469L38.1542 38.4732L29.0477 37.5127C28.8252 37.4904 28.6136 37.3997 28.4384 37.2516C28.2632 37.1035 28.1319 36.9043 28.0605 36.6782C27.9892 36.452 27.9807 36.2086 28.0362 35.9775C28.0917 35.7463 28.2087 35.5373 28.3732 35.3757L39.9754 24.2584C40.3352 23.8983 40.8973 23.9223 41.2346 24.2824C41.5494 24.6186 41.5944 25.1468 41.3245 25.531L35.8382 33.5268L44.9446 34.4873C45.9564 34.5833 46.3612 35.904 45.6192 36.6243Z" fill="#1EA13B"/>
<defs>
<linearGradient id="paint0_linear_51_619" x1="36.5" y1="-29.0023" x2="36.5" y2="152.619" gradientUnits="userSpaceOnUse">
<stop stop-color="#5EBB29"/>
<stop offset="0.467671" stop-color="#CAF662"/>
</linearGradient>
<linearGradient id="paint1_linear_51_619" x1="36.5" y1="-89.1645" x2="36.5" y2="114.781" gradientUnits="userSpaceOnUse">
<stop stop-color="#5EBB29"/>
<stop offset="0.716291" stop-color="#CAF662" stop-opacity="0"/>
</linearGradient>
</defs>
</svg>
