<svg width="64" height="64" viewBox="0 0 64 64" fill="none" xmlns="http://www.w3.org/2000/svg">
<path d="M0 32C0 14.3269 14.3269 0 32 0C49.6731 0 64 14.3269 64 32C64 49.6731 49.6731 64 32 64H0V32Z" fill="#FEFEFE"/>
<path d="M44.3333 40.6267L42.1333 41.1467C41.64 41.2667 41.2533 41.6401 41.1466 42.1334L40.68 44.0934C40.4266 45.1601 39.0666 45.4934 38.36 44.6534L34.3733 40.0667C34.0533 39.6934 34.2266 39.1067 34.7066 38.9867C37.0666 38.4134 39.1866 37.0934 40.7466 35.2134C41 34.9067 41.4533 34.8667 41.7333 35.1467L44.6933 38.1067C45.7066 39.1201 45.3466 40.3867 44.3333 40.6267Z" fill="#1EA13B"/>
<path d="M19.6 40.6267L21.8 41.1467C22.2933 41.2667 22.68 41.6401 22.7866 42.1334L23.2533 44.0934C23.5066 45.1601 24.8666 45.4934 25.5733 44.6534L29.56 40.0667C29.88 39.6934 29.7066 39.1067 29.2266 38.9867C26.8666 38.4134 24.7466 37.0934 23.1866 35.2134C22.9333 34.9067 22.48 34.8667 22.2 35.1467L19.24 38.1067C18.2266 39.1201 18.5866 40.3867 19.6 40.6267Z" fill="#1EA13B"/>
<path d="M32 18.6667C26.84 18.6667 22.6666 22.8401 22.6666 28.0001C22.6666 29.9334 23.24 31.7067 24.2266 33.1867C25.6666 35.3201 27.9466 36.8267 30.6 37.2134C31.0533 37.2934 31.52 37.3334 32 37.3334C32.48 37.3334 32.9466 37.2934 33.4 37.2134C36.0533 36.8267 38.3333 35.3201 39.7733 33.1867C40.76 31.7067 41.3333 29.9334 41.3333 28.0001C41.3333 22.8401 37.16 18.6667 32 18.6667ZM36.08 27.7067L34.9733 28.8134C34.7866 29.0001 34.68 29.3601 34.7466 29.6267L35.0666 31.0001C35.32 32.0801 34.7466 32.5067 33.7866 31.9334L32.4533 31.1467C32.2133 31.0001 31.8133 31.0001 31.5733 31.1467L30.24 31.9334C29.28 32.4934 28.7066 32.0801 28.96 31.0001L29.28 29.6267C29.3333 29.3734 29.24 29.0001 29.0533 28.8134L27.92 27.7067C27.2666 27.0534 27.48 26.4001 28.3866 26.2534L29.8133 26.0134C30.0533 25.9734 30.3333 25.7601 30.44 25.5467L31.2266 23.9734C31.6533 23.1201 32.3466 23.1201 32.7733 23.9734L33.56 25.5467C33.6666 25.7601 33.9466 25.9734 34.2 26.0134L35.6266 26.2534C36.52 26.4001 36.7333 27.0534 36.08 27.7067Z" fill="#1EA13B"/>
</svg>
