<svg width="1253" height="786" viewBox="0 0 1253 786" fill="none" xmlns="http://www.w3.org/2000/svg">
<path d="M89.3333 11.0786C89.3333 16.9697 94.109 21.7453 100 21.7453C105.891 21.7453 110.667 16.9697 110.667 11.0786C110.667 5.18758 105.891 0.411946 100 0.411946C94.109 0.411946 89.3333 5.18758 89.3333 11.0786ZM0 13.0786H100V9.07861H0V13.0786Z" fill="#1EA13B"/>
<line x1="100" y1="11.0786" x2="389" y2="11.0786" stroke="#1EA13B" stroke-width="4"/>
<path d="M502.333 11.0786C502.333 16.9697 507.109 21.7453 513 21.7453C518.891 21.7453 523.667 16.9697 523.667 11.0786C523.667 5.18758 518.891 0.411946 513 0.411946C507.109 0.411946 502.333 5.18758 502.333 11.0786ZM413 13.0786H513V9.07861H413V13.0786Z" fill="#1EA13B"/>
<line x1="513" y1="11.0786" x2="803" y2="11.0786" stroke="#1EA13B" stroke-width="4"/>
<path d="M916.333 11.0786C916.333 16.9697 921.109 21.7453 927 21.7453C932.891 21.7453 937.667 16.9697 937.667 11.0786C937.667 5.18758 932.891 0.411946 927 0.411946C921.109 0.411946 916.333 5.18758 916.333 11.0786ZM827 13.0786H927V9.07861H827V13.0786Z" fill="#1EA13B"/>
<line x1="927" y1="11.0786" x2="1216" y2="11.0786" stroke="#1EA13B" stroke-width="4"/>
<path d="M1242 126.412C1236.11 126.412 1231.33 131.188 1231.33 137.079C1231.33 142.97 1236.11 147.745 1242 147.745C1247.89 147.745 1252.67 142.97 1252.67 137.079C1252.67 131.188 1247.89 126.412 1242 126.412ZM1240 37.0786V137.079H1244V37.0786H1240Z" fill="#1EA13B"/>
<line x1="1242" y1="137.079" x2="1242" y2="381.079" stroke="#1EA13B" stroke-width="4"/>
<path d="M299.667 775.079C299.667 769.188 294.891 764.412 289 764.412C283.109 764.412 278.333 769.188 278.333 775.079C278.333 780.97 283.109 785.745 289 785.745C294.891 785.745 299.667 780.97 299.667 775.079ZM389 773.079H289V777.079H389V773.079Z" fill="#1EA13B"/>
<line x1="289" y1="775.079" y2="775.079" stroke="#1EA13B" stroke-width="4"/>
<path d="M713.667 775.079C713.667 769.188 708.891 764.412 703 764.412C697.109 764.412 692.333 769.188 692.333 775.079C692.333 780.97 697.109 785.745 703 785.745C708.891 785.745 713.667 780.97 713.667 775.079ZM803 773.079H703V777.079H803V773.079Z" fill="#1EA13B"/>
<line x1="703" y1="775.079" x2="413" y2="775.079" stroke="#1EA13B" stroke-width="4"/>
<path d="M1242 494.412C1236.11 494.412 1231.33 499.188 1231.33 505.079C1231.33 510.97 1236.11 515.745 1242 515.745C1247.89 515.745 1252.67 510.97 1252.67 505.079C1252.67 499.188 1247.89 494.412 1242 494.412ZM1240 405.079V505.079H1244V405.079H1240Z" fill="#1EA13B"/>
<line x1="1242" y1="505.079" x2="1242" y2="749.079" stroke="#1EA13B" stroke-width="4"/>
<path d="M1126.67 775.079C1126.67 769.188 1121.89 764.412 1116 764.412C1110.11 764.412 1105.33 769.188 1105.33 775.079C1105.33 780.97 1110.11 785.745 1116 785.745C1121.89 785.745 1126.67 780.97 1126.67 775.079ZM1216 773.079H1116V777.079H1216V773.079Z" fill="#1EA13B"/>
<line x1="1116" y1="775.079" x2="827" y2="775.079" stroke="#1EA13B" stroke-width="4"/>
</svg>
