<svg width="72" height="72" viewBox="0 0 72 72" fill="none" xmlns="http://www.w3.org/2000/svg">
<rect width="72" height="72" rx="36" fill="#5EBB29" fill-opacity="0.05"/>
<rect x="8" y="8" width="56" height="56" rx="28" fill="url(#paint0_linear_19_3319)" fill-opacity="0.1"/>
<rect x="8.5" y="8.5" width="55" height="55" rx="27.5" stroke="url(#paint1_linear_19_3319)" stroke-opacity="0.2"/>
<path d="M35.1102 30.1944C35.1102 29.9513 35.1102 29.2778 35.1102 29.2778C35.1102 29.2778 35.7838 29.2778 36.0269 29.2778H41.8056C42.0487 29.2778 42.2818 29.3744 42.4537 29.5463C42.6256 29.7182 42.7222 29.9513 42.7222 30.1944V35.9743C42.7222 36.2175 42.7222 36.891 42.7222 36.891C42.7222 36.891 42.0487 36.891 41.8056 36.891C41.5624 36.891 40.8889 36.891 40.8889 36.891C40.8889 36.891 40.8889 36.2175 40.8889 35.9743V32.4067L34.5089 38.7867C34.4243 38.8742 34.3231 38.944 34.2112 38.992C34.0994 39.0399 33.9791 39.0652 33.8574 39.0662C33.7357 39.0672 33.615 39.0439 33.5023 38.9978C33.3897 38.9516 33.2874 38.8835 33.2014 38.7974C33.1153 38.7113 33.0473 38.6089 33.0013 38.4962C32.9552 38.3836 32.9321 38.2629 32.9332 38.1411C32.9343 38.0194 32.9597 37.8992 33.0078 37.7873C33.0559 37.6755 33.1257 37.5744 33.2133 37.4899L39.5933 31.1111H36.0269C35.7838 31.1111 35.1102 31.1111 35.1102 31.1111C35.1102 31.1111 35.1102 30.4376 35.1102 30.1944ZM28.8586 27.75C29.1172 26.9509 29.6223 26.2543 30.3015 25.7602C30.9807 25.2662 31.799 25 32.6389 25H43.0278C44.0813 25 45.0916 25.4185 45.8366 26.1634C46.5815 26.9084 47 27.9187 47 28.9722V39.4687C47.0001 40.2531 46.768 41.0199 46.333 41.6726C45.898 42.3254 45.2795 42.8347 44.5556 43.1366V43.3028C44.5556 44.5861 43.9078 45.5578 42.9557 46.1677C42.039 46.7543 40.8571 47.0061 39.6642 46.9988H39.6618L34.6788 46.9939H29.8889C28.4748 46.9939 27.244 46.5514 26.3567 45.7167C25.4681 44.8782 25 43.7122 25 42.4167V31.7222C25 30.665 25.264 29.6652 25.8971 28.916C26.5498 28.1423 27.4982 27.75 28.6129 27.75H28.8586ZM28.6667 29.5833H28.6129C27.948 29.5833 27.5483 29.8021 27.2978 30.0979C27.0289 30.4181 26.8333 30.9461 26.8333 31.7222V42.4167C26.8333 43.26 27.1291 43.9249 27.6156 44.382C28.1044 44.8428 28.8586 45.1606 29.8889 45.1606H34.68L39.6667 45.1667H39.6716C40.6347 45.1716 41.4377 44.9638 41.9669 44.624C42.4216 44.3331 42.6782 43.9518 42.7173 43.4409H32.6389C31.5854 43.4409 30.575 43.0224 29.8301 42.2775C29.0852 41.5325 28.6667 40.5222 28.6667 39.4687V29.5833ZM32.6389 26.8333C32.0716 26.8333 31.5276 27.0587 31.1265 27.4598C30.7253 27.8609 30.5 28.405 30.5 28.9722V39.4687C30.5 40.6506 31.4582 41.6076 32.6389 41.6076H43.0278C43.595 41.6076 44.1391 41.3822 44.5402 40.9811C44.9413 40.58 45.1667 40.0359 45.1667 39.4687V28.9722C45.1667 28.405 44.9413 27.8609 44.5402 27.4598C44.1391 27.0587 43.595 26.8333 43.0278 26.8333H32.6389Z" fill="#1EA13B"/>
<defs>
<linearGradient id="paint0_linear_19_3319" x1="36" y1="-29.0811" x2="36" y2="152.541" gradientUnits="userSpaceOnUse">
<stop stop-color="#5EBB29"/>
<stop offset="0.467671" stop-color="#CAF662"/>
</linearGradient>
<linearGradient id="paint1_linear_19_3319" x1="36" y1="-89.2432" x2="36" y2="114.703" gradientUnits="userSpaceOnUse">
<stop stop-color="#5EBB29"/>
<stop offset="0.716291" stop-color="#CAF662" stop-opacity="0"/>
</linearGradient>
</defs>
</svg>
