<svg width="73" height="72" viewBox="0 0 73 72" fill="none" xmlns="http://www.w3.org/2000/svg">
<rect x="0.5" width="72" height="72" rx="36" fill="#5EBB29" fill-opacity="0.05"/>
<rect x="8.5" y="8" width="56" height="56" rx="28" fill="url(#paint0_linear_19_3332)" fill-opacity="0.1"/>
<rect x="9" y="8.5" width="55" height="55" rx="27.5" stroke="url(#paint1_linear_19_3332)" stroke-opacity="0.2"/>
<g clip-path="url(#clip0_19_3332)">
<path d="M40.7778 42.4098H42.1544V40.0764H43.2013C43.6618 40.0764 44.0559 39.9126 44.3836 39.5849C44.7123 39.2572 44.8767 38.8631 44.8767 38.4027V33.3767C44.8767 32.9152 44.7123 32.5206 44.3836 32.1929C44.0559 31.8652 43.6618 31.7013 43.2013 31.7013H39.7309C39.2704 31.7013 38.8764 31.8652 38.5487 32.1929C38.2199 32.5206 38.0556 32.9147 38.0556 33.3751V38.4011C38.0556 38.8626 38.2194 39.2572 38.5471 39.5849C38.8759 39.9126 39.2699 40.0764 39.7293 40.0764H40.7778V42.4098ZM28.1233 40.0764H29.5V36.9653H33.5678V40.0764H34.9444V31.7013H33.5678V35.5902H29.5V31.7013H28.1233V40.0764ZM39.9098 38.7013C39.7905 38.7013 39.6811 38.6516 39.5816 38.552C39.482 38.4514 39.4322 38.3415 39.4322 38.2222V33.5556C39.4322 33.4363 39.482 33.3264 39.5816 33.2258C39.6811 33.1262 39.7905 33.0764 39.9098 33.0764H43.0209C43.1412 33.0764 43.2511 33.1262 43.3507 33.2258C43.4502 33.3264 43.5 33.4363 43.5 33.5556V38.2222C43.5 38.3415 43.4502 38.4514 43.3507 38.552C43.2511 38.6516 43.1412 38.7013 43.0209 38.7013H39.9098ZM25.0122 46.7778C24.2967 46.7778 23.6993 46.5382 23.2202 46.0591C22.7401 45.579 22.5 44.9811 22.5 44.2656V27.5122C22.5 26.7967 22.7401 26.1993 23.2202 25.7202C23.6993 25.2401 24.2967 25 25.0122 25H47.9878C48.7033 25 49.3007 25.2401 49.7798 25.7202C50.2599 26.1993 50.5 26.7967 50.5 27.5122V44.2656C50.5 44.9811 50.2604 45.5784 49.7813 46.0576C49.3012 46.5377 48.7033 46.7778 47.9878 46.7778H25.0122ZM25.0122 45.2222H47.9878C48.2263 45.2222 48.4456 45.1227 48.6458 44.9236C48.8449 44.7234 48.9444 44.5041 48.9444 44.2656V27.5122C48.9444 27.2737 48.8449 27.0544 48.6458 26.8542C48.4456 26.6551 48.2263 26.5556 47.9878 26.5556H25.0122C24.7737 26.5556 24.5544 26.6551 24.3542 26.8542C24.1551 27.0544 24.0556 27.2737 24.0556 27.5122V44.2656C24.0556 44.5041 24.1551 44.7234 24.3542 44.9236C24.5544 45.1227 24.7737 45.2222 25.0122 45.2222Z" fill="#1EA13B"/>
</g>
<defs>
<linearGradient id="paint0_linear_19_3332" x1="36.5" y1="-29.0811" x2="36.5" y2="152.541" gradientUnits="userSpaceOnUse">
<stop stop-color="#5EBB29"/>
<stop offset="0.467671" stop-color="#CAF662"/>
</linearGradient>
<linearGradient id="paint1_linear_19_3332" x1="36.5" y1="-89.2432" x2="36.5" y2="114.703" gradientUnits="userSpaceOnUse">
<stop stop-color="#5EBB29"/>
<stop offset="0.716291" stop-color="#CAF662" stop-opacity="0"/>
</linearGradient>
<clipPath id="clip0_19_3332">
<rect width="28" height="28" fill="white" transform="translate(22.5 22)"/>
</clipPath>
</defs>
</svg>
