<svg width="73" height="72" viewBox="0 0 73 72" fill="none" xmlns="http://www.w3.org/2000/svg">
<rect x="0.5" width="72" height="72" rx="36" fill="#5EBB29" fill-opacity="0.05"/>
<rect x="8.5" y="8" width="56" height="56" rx="28" fill="url(#paint0_linear_19_3304)" fill-opacity="0.1"/>
<rect x="9" y="8.5" width="55" height="55" rx="27.5" stroke="url(#paint1_linear_19_3304)" stroke-opacity="0.2"/>
<path d="M41.3738 46.2812C39.8514 47.0056 38.186 47.3794 36.5 47.375C30.228 47.375 25.125 42.272 25.125 36C25.125 33.3094 26.0499 30.7684 27.75 28.7305V30.75H29.5V25.5H24.25V27.25H26.7368C24.5674 29.6473 23.3688 32.7668 23.375 36C23.375 43.2371 29.2629 49.125 36.5 49.125C38.4463 49.1299 40.369 48.6982 42.1263 47.8615L41.3738 46.2812Z" fill="#1EA13B"/>
<path d="M40.875 29.875C38.11 29.875 35.8429 32.0249 35.6443 34.74C34.6823 33.8623 33.4272 33.3755 32.125 33.375H28.625V36.875C28.625 39.7704 30.9805 42.125 33.875 42.125H35.625V45.625H37.375V38.625H39.125C42.0195 38.625 44.375 36.2704 44.375 33.375V29.875H40.875ZM33.875 40.375C31.9447 40.375 30.375 38.8053 30.375 36.875V35.125H32.125C34.0553 35.125 35.625 36.6947 35.625 38.625V39.1378L33.6186 37.1314L32.3814 38.3686L34.3878 40.375H33.875ZM42.625 33.375C42.625 35.3053 41.0553 36.875 39.125 36.875H38.6122L40.6186 34.8686L39.3814 33.6314L37.375 35.6378V35.125C37.375 33.1947 38.9447 31.625 40.875 31.625H42.625V33.375Z" fill="#1EA13B"/>
<path d="M49.625 36C49.625 28.7629 43.7372 22.875 36.5 22.875C34.5537 22.8701 32.6311 23.3019 30.8738 24.1385L31.6263 25.7188C33.1487 24.9944 34.8141 24.6206 36.5 24.625C42.772 24.625 47.875 29.728 47.875 36C47.875 38.6907 46.9502 41.2317 45.25 43.2695V41.25H43.5V46.5H48.75V44.75H46.2633C48.4327 42.3527 49.6312 39.2332 49.625 36Z" fill="#1EA13B"/>
<defs>
<linearGradient id="paint0_linear_19_3304" x1="36.5" y1="-29.0811" x2="36.5" y2="152.541" gradientUnits="userSpaceOnUse">
<stop stop-color="#5EBB29"/>
<stop offset="0.467671" stop-color="#CAF662"/>
</linearGradient>
<linearGradient id="paint1_linear_19_3304" x1="36.5" y1="-89.2432" x2="36.5" y2="114.703" gradientUnits="userSpaceOnUse">
<stop stop-color="#5EBB29"/>
<stop offset="0.716291" stop-color="#CAF662" stop-opacity="0"/>
</linearGradient>
</defs>
</svg>
