<svg width="64" height="64" viewBox="0 0 64 64" fill="none" xmlns="http://www.w3.org/2000/svg">
<path d="M0 32C0 14.3269 14.3269 0 32 0C49.6731 0 64 14.3269 64 32C64 49.6731 49.6731 64 32 64H0V32Z" fill="#FEFEFE"/>
<path d="M43.8651 32.8324L28.1499 47.6554C27.6626 48.1357 26.9012 48.1037 26.4444 47.6234C26.2363 47.4082 26.1093 47.121 26.0869 46.815C26.0645 46.509 26.1482 46.2048 26.3225 45.9586L33.7538 35.2976L21.4192 34.017C21.1178 33.9872 20.8311 33.8663 20.5938 33.6688C20.3565 33.4713 20.1787 33.2057 20.082 32.9042C19.9853 32.6027 19.9739 32.2782 20.049 31.97C20.1242 31.6617 20.2827 31.383 20.5055 31.1676L36.2207 16.3446C36.708 15.8643 37.4694 15.8964 37.9262 16.3766C38.3526 16.8248 38.4135 17.5291 38.048 18.0414L30.6168 28.7024L42.9514 29.983C44.3219 30.1111 44.8701 31.8719 43.8651 32.8324Z" fill="#1EA13B"/>
</svg>
